<svg width="1292" height="1134" viewBox="0 0 1292 1134" fill="none" xmlns="http://www.w3.org/2000/svg">
<rect width="1291" height="1129" fill="white"/>
<path d="M409.656 536.93H352.683V765.108H409.656V536.93Z" fill="#BEBAFF" fill-opacity="0.8"/>
<path d="M400.347 520.572H361.992V616.459H400.347V520.572Z" fill="#BEBAFF" fill-opacity="0.8"/>
<path d="M391.808 510.195H370.533V563.382H391.808V510.195Z" fill="#BEBAFF" fill-opacity="0.8"/>
<path d="M388.419 537.526H373.92V501.279H379.151H384.333H388.419V537.526Z" fill="#BEBAFF" fill-opacity="0.8"/>
<path d="M380.214 521.741H378.642V485.495H379.21H379.771H380.214V521.741Z" fill="#BEBAFF" fill-opacity="0.8"/>
<path d="M383.698 509.211H382.125V472.965H382.692H383.255H383.698V509.211Z" fill="#BEBAFF" fill-opacity="0.8"/>
<path d="M411.175 536.345H351.163V538.774H411.175V536.345Z" fill="#BEBAFF" fill-opacity="0.8"/>
<path d="M401.747 519.402H360.594V521.742H401.747V519.402Z" fill="#BEBAFF" fill-opacity="0.8"/>
<path d="M392.698 509.211H368.982V511.006H392.698V509.211Z" fill="#BEBAFF" fill-opacity="0.8"/>
<path opacity="0.29" d="M367.302 524.463H365.52V534.51H367.302V524.463Z" fill="#BEBAFF" fill-opacity="0.8"/>
<path opacity="0.29" d="M372.236 524.463H370.452V534.51H372.236V524.463Z" fill="#BEBAFF" fill-opacity="0.8"/>
<path opacity="0.29" d="M377.171 524.463H375.387V534.51H377.171V524.463Z" fill="#BEBAFF" fill-opacity="0.8"/>
<path opacity="0.29" d="M382.104 524.463H380.32V534.51H382.104V524.463Z" fill="#BEBAFF" fill-opacity="0.8"/>
<path opacity="0.29" d="M387.037 524.463H385.253V534.51H387.037V524.463Z" fill="#BEBAFF" fill-opacity="0.8"/>
<path opacity="0.29" d="M391.971 524.463H390.188V534.51H391.971V524.463Z" fill="#BEBAFF" fill-opacity="0.8"/>
<path opacity="0.29" d="M396.905 524.463H395.121V534.51H396.905V524.463Z" fill="#BEBAFF" fill-opacity="0.8"/>
<path d="M361.992 546.028H357.684V557.949H361.992V546.028Z" fill="#BEBAFF" fill-opacity="0.8"/>
<path opacity="0.29" d="M370.524 546.028H366.216V557.949H370.524V546.028Z" fill="#BEBAFF" fill-opacity="0.8"/>
<path d="M379.058 546.028H374.75V557.949H379.058V546.028Z" fill="#BEBAFF" fill-opacity="0.8"/>
<path d="M387.59 546.028H383.281V557.949H387.59V546.028Z" fill="#BEBAFF" fill-opacity="0.8"/>
<path d="M396.123 546.028H391.815V557.949H396.123V546.028Z" fill="#BEBAFF" fill-opacity="0.8"/>
<path d="M404.655 546.028H400.347V557.949H404.655V546.028Z" fill="#BEBAFF" fill-opacity="0.8"/>
<path d="M361.992 564.608H357.684V576.529H361.992V564.608Z" fill="#BEBAFF" fill-opacity="0.8"/>
<path d="M370.524 564.608H366.216V576.529H370.524V564.608Z" fill="#BEBAFF" fill-opacity="0.8"/>
<path d="M379.058 564.608H374.75V576.529H379.058V564.608Z" fill="#BEBAFF" fill-opacity="0.8"/>
<path opacity="0.29" d="M387.59 564.608H383.281V576.529H387.59V564.608Z" fill="#BEBAFF" fill-opacity="0.8"/>
<path d="M396.123 564.608H391.815V576.529H396.123V564.608Z" fill="#BEBAFF" fill-opacity="0.8"/>
<path d="M404.655 564.608H400.347V576.529H404.655V564.608Z" fill="#BEBAFF" fill-opacity="0.8"/>
<path d="M361.992 583.19H357.684V595.11H361.992V583.19Z" fill="#BEBAFF" fill-opacity="0.8"/>
<path d="M370.524 583.19H366.216V595.11H370.524V583.19Z" fill="#BEBAFF" fill-opacity="0.8"/>
<path d="M379.058 583.19H374.75V595.11H379.058V583.19Z" fill="#BEBAFF" fill-opacity="0.8"/>
<path d="M387.59 583.19H383.281V595.11H387.59V583.19Z" fill="#BEBAFF" fill-opacity="0.8"/>
<path opacity="0.29" d="M396.123 583.19H391.815V595.11H396.123V583.19Z" fill="#BEBAFF" fill-opacity="0.8"/>
<path opacity="0.29" d="M404.655 583.19H400.347V595.11H404.655V583.19Z" fill="#BEBAFF" fill-opacity="0.8"/>
<path opacity="0.29" d="M361.992 601.77H357.684V613.69H361.992V601.77Z" fill="#BEBAFF" fill-opacity="0.8"/>
<path d="M370.524 601.77H366.216V613.69H370.524V601.77Z" fill="#BEBAFF" fill-opacity="0.8"/>
<path d="M379.058 601.77H374.75V613.69H379.058V601.77Z" fill="#BEBAFF" fill-opacity="0.8"/>
<path d="M387.59 601.77H383.281V613.69H387.59V601.77Z" fill="#BEBAFF" fill-opacity="0.8"/>
<path d="M396.123 601.77H391.815V613.69H396.123V601.77Z" fill="#BEBAFF" fill-opacity="0.8"/>
<path d="M404.655 601.77H400.347V613.69H404.655V601.77Z" fill="#BEBAFF" fill-opacity="0.8"/>
<path d="M361.992 620.351H357.684V632.272H361.992V620.351Z" fill="#BEBAFF" fill-opacity="0.8"/>
<path opacity="0.29" d="M370.524 620.351H366.216V632.272H370.524V620.351Z" fill="#BEBAFF" fill-opacity="0.8"/>
<path d="M379.058 620.351H374.75V632.272H379.058V620.351Z" fill="#BEBAFF" fill-opacity="0.8"/>
<path opacity="0.29" d="M387.59 620.351H383.281V632.272H387.59V620.351Z" fill="#BEBAFF" fill-opacity="0.8"/>
<path d="M396.123 620.351H391.815V632.272H396.123V620.351Z" fill="#BEBAFF" fill-opacity="0.8"/>
<path d="M404.655 620.351H400.347V632.272H404.655V620.351Z" fill="#BEBAFF" fill-opacity="0.8"/>
<path d="M361.992 638.932H357.684V650.853H361.992V638.932Z" fill="#BEBAFF" fill-opacity="0.8"/>
<path d="M370.524 638.932H366.216V650.853H370.524V638.932Z" fill="#BEBAFF" fill-opacity="0.8"/>
<path d="M379.058 638.932H374.75V650.853H379.058V638.932Z" fill="#BEBAFF" fill-opacity="0.8"/>
<path d="M387.59 638.932H383.281V650.853H387.59V638.932Z" fill="#BEBAFF" fill-opacity="0.8"/>
<path d="M396.123 638.932H391.815V650.853H396.123V638.932Z" fill="#BEBAFF" fill-opacity="0.8"/>
<path opacity="0.29" d="M404.655 638.932H400.347V650.853H404.655V638.932Z" fill="#BEBAFF" fill-opacity="0.8"/>
<path d="M361.992 657.513H357.684V669.433H361.992V657.513Z" fill="#BEBAFF" fill-opacity="0.8"/>
<path opacity="0.29" d="M370.524 657.513H366.216V669.433H370.524V657.513Z" fill="#BEBAFF" fill-opacity="0.8"/>
<path opacity="0.29" d="M379.058 657.513H374.75V669.433H379.058V657.513Z" fill="#BEBAFF" fill-opacity="0.8"/>
<path d="M387.59 657.513H383.281V669.433H387.59V657.513Z" fill="#BEBAFF" fill-opacity="0.8"/>
<path d="M396.123 657.513H391.815V669.433H396.123V657.513Z" fill="#BEBAFF" fill-opacity="0.8"/>
<path d="M404.655 657.513H400.347V669.433H404.655V657.513Z" fill="#BEBAFF" fill-opacity="0.8"/>
<path d="M361.992 676.094H357.684V688.015H361.992V676.094Z" fill="#BEBAFF" fill-opacity="0.8"/>
<path d="M370.524 676.094H366.216V688.015H370.524V676.094Z" fill="#BEBAFF" fill-opacity="0.8"/>
<path d="M379.058 676.094H374.75V688.015H379.058V676.094Z" fill="#BEBAFF" fill-opacity="0.8"/>
<path d="M387.59 676.094H383.281V688.015H387.59V676.094Z" fill="#BEBAFF" fill-opacity="0.8"/>
<path opacity="0.29" d="M396.123 676.094H391.815V688.015H396.123V676.094Z" fill="#BEBAFF" fill-opacity="0.8"/>
<path d="M404.655 676.094H400.347V688.015H404.655V676.094Z" fill="#BEBAFF" fill-opacity="0.8"/>
<path d="M361.992 694.674H357.684V706.595H361.992V694.674Z" fill="#BEBAFF" fill-opacity="0.8"/>
<path opacity="0.29" d="M370.524 694.674H366.216V706.595H370.524V694.674Z" fill="#BEBAFF" fill-opacity="0.8"/>
<path d="M379.058 694.674H374.75V706.595H379.058V694.674Z" fill="#BEBAFF" fill-opacity="0.8"/>
<path d="M387.59 694.674H383.281V706.595H387.59V694.674Z" fill="#BEBAFF" fill-opacity="0.8"/>
<path d="M396.123 694.674H391.815V706.595H396.123V694.674Z" fill="#BEBAFF" fill-opacity="0.8"/>
<path d="M404.655 694.674H400.347V706.595H404.655V694.674Z" fill="#BEBAFF" fill-opacity="0.8"/>
<path d="M361.992 713.255H357.684V725.176H361.992V713.255Z" fill="#BEBAFF" fill-opacity="0.8"/>
<path d="M370.524 713.255H366.216V725.176H370.524V713.255Z" fill="#BEBAFF" fill-opacity="0.8"/>
<path d="M379.058 713.255H374.75V725.176H379.058V713.255Z" fill="#BEBAFF" fill-opacity="0.8"/>
<path opacity="0.29" d="M387.59 713.255H383.281V725.176H387.59V713.255Z" fill="#BEBAFF" fill-opacity="0.8"/>
<path d="M396.123 713.255H391.815V725.176H396.123V713.255Z" fill="#BEBAFF" fill-opacity="0.8"/>
<path opacity="0.29" d="M404.655 713.255H400.347V725.176H404.655V713.255Z" fill="#BEBAFF" fill-opacity="0.8"/>
<path opacity="0.29" d="M361.992 731.836H357.684V743.756H361.992V731.836Z" fill="#BEBAFF" fill-opacity="0.8"/>
<path d="M370.524 731.836H366.216V743.756H370.524V731.836Z" fill="#BEBAFF" fill-opacity="0.8"/>
<path opacity="0.29" d="M379.058 731.836H374.75V743.756H379.058V731.836Z" fill="#BEBAFF" fill-opacity="0.8"/>
<path d="M387.59 731.836H383.281V743.756H387.59V731.836Z" fill="#BEBAFF" fill-opacity="0.8"/>
<path d="M396.123 731.836H391.815V743.756H396.123V731.836Z" fill="#BEBAFF" fill-opacity="0.8"/>
<path d="M404.655 731.836H400.347V743.756H404.655V731.836Z" fill="#BEBAFF" fill-opacity="0.8"/>
<path d="M278.805 545.609H187.22V737.829H278.805V545.609Z" fill="#BEBAFF" fill-opacity="0.8"/>
<path d="M281.408 542.303H184.618V547.736H281.408V542.303Z" fill="#BEBAFF" fill-opacity="0.8"/>
<path d="M275.726 535.35H190.299V561.174H275.726V535.35Z" fill="#BEBAFF" fill-opacity="0.8"/>
<path d="M230.667 524.783H196.838V552.998H230.667V524.783Z" fill="#BEBAFF" fill-opacity="0.8"/>
<path d="M216.415 532.735H196.838V517.883H210.879L216.415 532.735Z" fill="#BEBAFF" fill-opacity="0.8"/>
<path d="M206.627 505.555H204.729V538.638H206.627V505.555Z" fill="#BEBAFF" fill-opacity="0.8"/>
<path d="M207.381 503.839C207.381 504.786 206.618 505.553 205.676 505.553C204.736 505.553 203.971 504.786 203.971 503.839C203.971 502.893 204.734 502.124 205.676 502.124C206.618 502.125 207.381 502.893 207.381 503.839Z" fill="#BEBAFF" fill-opacity="0.8"/>
<path d="M1037.22 752.462H936.966L924.456 469.846L1037.22 493.398V752.462Z" fill="#BEBAFF" fill-opacity="0.8"/>
<path d="M599.836 591.063V496.578H584.114V471.269H578.497V434.149H547.55V406.869H544.796V434.149H538.733V400H535.98V434.149H516.416V496.578H506.31V591.063H497.647V763.161H605.927V591.063H599.836Z" fill="#BEBAFF" fill-opacity="0.8"/>
<path d="M1257.05 748.958H59.2234V777.623H1257.05V748.958Z" fill="#BEBAFF" fill-opacity="0.8"/>
<path d="M764.298 770.599H711.257L731.925 663.729H764.298V770.599Z" fill="#A991F9" fill-opacity="0.8"/>
<path d="M1273.91 774.762H16.2476V819.961H1273.91V774.762Z" fill="#A991F9" fill-opacity="0.8"/>
<path d="M720.83 572.837V525.48H703.8V507.45H694.689V492.304H691.492V466.343H690.665V492.304H687.467V507.45H678.355V525.48H661.455V572.837H657.942V658.815H631.738V756.826H657.942H684.147H724.214V572.837H720.83Z" fill="#A991F9" fill-opacity="0.8"/>
<path d="M818.708 627.236H736.274V628.744H740.004V768.997H814.978V628.744H818.708V627.236Z" fill="#A991F9" fill-opacity="0.8"/>
<path d="M442.807 662.171H369.719V779.004H442.807V662.171Z" fill="#A991F9" fill-opacity="0.8"/>
<path d="M358.711 722.029H233.013V779.002H358.711V722.029Z" fill="#A991F9" fill-opacity="0.8"/>
<path d="M327.982 594.74H300.387V734.651H327.982V594.74Z" fill="#A991F9" fill-opacity="0.8"/>
<path d="M307.912 557.418H306.479V633.503H307.912V557.418Z" fill="#A991F9" fill-opacity="0.8"/>
<path d="M312.572 563.188H311.139V639.273H312.572V563.188Z" fill="#A991F9" fill-opacity="0.8"/>
<path d="M319.382 586.086H302.515V604.836H319.382V586.086Z" fill="#A991F9" fill-opacity="0.8"/>
<path d="M401.807 683.085H353.785V779.002H401.807V683.085Z" fill="#A991F9" fill-opacity="0.8"/>
<path d="M544.799 581.58H454.654V779.002H544.799V581.58Z" fill="#A991F9" fill-opacity="0.8"/>
<path d="M535.942 574.795H463.51V607.677H535.942V574.795Z" fill="#A991F9" fill-opacity="0.8"/>
<path d="M551.787 585.711H447.667V588.02H551.787V585.711Z" fill="#A991F9" fill-opacity="0.8"/>
<path d="M480.798 679.299H438.322V779.004H480.798V679.299Z" fill="#A991F9" fill-opacity="0.8"/>
<path d="M182.84 675.512H134.101V779.002H182.84V675.512Z" fill="#A991F9" fill-opacity="0.8"/>
<path d="M246.989 647.387H149.87V779.004H246.989V647.387Z" fill="#A991F9" fill-opacity="0.8"/>
<path d="M249.498 642.338H144.204V647.387H249.498V642.338Z" fill="#A991F9" fill-opacity="0.8"/>
<path d="M196.851 628.635H154.17V655.319H196.851V628.635Z" fill="#A991F9" fill-opacity="0.8"/>
<path d="M217.96 628.635H210.793V644.862H217.96V628.635Z" fill="#A991F9" fill-opacity="0.8"/>
<path d="M233.013 628.635H225.128V644.862H233.013V628.635Z" fill="#A991F9" fill-opacity="0.8"/>
<path d="M158.47 738.977H107.581V779.004H158.47V738.977Z" fill="#A991F9" fill-opacity="0.8"/>
<path d="M112.456 722.029H88.3594V779.002H112.456V722.029Z" fill="#A991F9" fill-opacity="0.8"/>
<path d="M100.409 758.99H59.2236V779.004H100.409V758.99Z" fill="#A991F9" fill-opacity="0.8"/>
<path d="M1043.42 734.649H535.944V779.002H1043.42V734.649Z" fill="#A991F9" fill-opacity="0.8"/>
<path d="M1002.9 611.874C999.703 611.874 997.084 614.347 996.823 617.495L989.681 617.26C989.7 616.557 989.711 615.851 989.711 615.145C989.711 606.201 988.177 597.494 985.236 589.328L991.203 587.117C992.141 589.294 994.293 590.816 996.8 590.816C1000.17 590.816 1002.9 588.069 1002.9 584.681C1002.9 581.292 1000.17 578.545 996.8 578.545C993.433 578.545 990.702 581.292 990.702 584.681C990.702 585.307 990.795 585.91 990.969 586.479L985.004 588.688C981.605 579.514 976.422 571.037 969.632 563.694L974.301 559.293C975.396 560.345 976.878 560.992 978.512 560.992C981.88 560.992 984.61 558.245 984.61 554.857C984.61 551.468 981.88 548.721 978.512 548.721C975.145 548.721 972.414 551.468 972.414 554.857C972.414 556.357 972.95 557.73 973.839 558.797L969.169 563.2C968.688 562.69 968.2 562.183 967.703 561.683C960.633 554.57 952.403 549.049 943.442 545.299L946.01 539.007C946.593 539.193 947.213 539.294 947.856 539.294C951.224 539.294 953.954 536.546 953.954 533.158C953.954 529.769 951.224 527.022 947.856 527.022C944.488 527.022 941.758 529.769 941.758 533.158C941.758 535.658 943.245 537.808 945.377 538.764L942.815 545.042C934.797 541.772 926.206 539.912 917.347 539.59L917.625 530.99C917.69 530.991 917.753 530.994 917.818 530.994C921.186 530.994 923.916 528.247 923.916 524.858C923.916 521.47 921.186 518.723 917.818 518.723C914.45 518.723 911.72 521.47 911.72 524.858C911.72 527.95 913.993 530.506 916.949 530.931L916.67 539.569C915.97 539.549 915.27 539.539 914.567 539.539C906.037 539.539 897.725 540.961 889.895 543.689L887.436 536.67C889.654 535.752 891.215 533.557 891.215 530.994C891.215 527.605 888.485 524.858 885.117 524.858C881.749 524.858 879.018 527.605 879.018 530.994C879.018 534.382 881.748 537.13 885.117 537.13C885.7 537.13 886.262 537.046 886.795 536.893L889.255 543.914C879.759 547.322 870.992 552.665 863.432 559.741L858.975 554.956C859.972 553.864 860.582 552.408 860.582 550.807C860.582 547.419 857.851 544.671 854.484 544.671C851.116 544.671 848.384 547.419 848.384 550.807C848.384 554.196 851.115 556.943 854.484 556.943C856.018 556.943 857.418 556.371 858.49 555.43L862.939 560.208C862.432 560.692 861.928 561.183 861.432 561.682C855.144 568.009 850.109 575.26 846.449 583.131L840.782 580.499C840.986 579.885 841.099 579.228 841.099 578.544C841.099 575.155 838.369 572.408 835.001 572.408C831.633 572.408 828.903 575.155 828.903 578.544C828.903 581.932 831.633 584.679 835.001 584.679C837.449 584.679 839.56 583.226 840.531 581.132L846.16 583.747C842.119 592.65 839.828 602.327 839.469 612.348L832.199 612.11C832.109 608.799 829.416 606.144 826.105 606.144C822.738 606.144 820.007 608.891 820.007 612.28C820.007 615.668 822.738 618.415 826.105 618.415C829.302 618.415 831.923 615.939 832.181 612.791L839.448 613.029C839.428 613.733 839.418 614.438 839.418 615.145C839.418 624.089 840.952 632.795 843.893 640.962L837.926 643.172C836.988 640.996 834.836 639.473 832.329 639.473C828.961 639.473 826.231 642.22 826.231 645.609C826.231 648.997 828.961 651.744 832.329 651.744C835.696 651.744 838.428 648.997 838.428 645.609C838.428 644.983 838.335 644.38 838.161 643.811L844.127 641.6C847.525 650.774 852.708 659.251 859.498 666.594L854.829 670.996C853.735 669.944 852.253 669.296 850.618 669.296C847.25 669.296 844.52 672.043 844.52 675.431C844.52 678.82 847.25 681.567 850.618 681.567C853.986 681.567 856.718 678.82 856.718 675.431C856.718 673.931 856.182 672.558 855.293 671.491L859.962 667.089C860.443 667.6 860.931 668.107 861.428 668.606C866.189 673.396 871.477 677.465 877.16 680.757L840.388 748.954H833.788V750.904H830.556V754.776H998.569V750.904H995.336V748.954H988.736L951.964 680.757C956.863 677.919 961.468 674.505 965.696 670.549L971.654 676.947C970.375 678.072 969.566 679.724 969.566 681.568C969.566 684.957 972.296 687.704 975.663 687.704C979.031 687.704 981.763 684.957 981.763 681.568C981.763 678.18 979.033 675.433 975.663 675.433C974.372 675.433 973.176 675.837 972.19 676.527L966.189 670.083C966.697 669.599 967.201 669.108 967.697 668.609C973.985 662.282 979.02 655.031 982.681 647.16L989.317 650.242C989.198 650.723 989.133 651.226 989.133 651.744C989.133 655.133 991.863 657.88 995.231 657.88C998.598 657.88 1001.33 655.133 1001.33 651.744C1001.33 648.356 998.598 645.609 995.231 645.609C992.617 645.609 990.389 647.262 989.522 649.586L982.967 646.541C987.009 637.638 989.299 627.961 989.659 617.94L996.803 618.174C996.891 621.486 999.584 624.144 1002.9 624.144C1006.26 624.144 1009 621.397 1009 618.008C1009 614.62 1006.27 611.874 1002.9 611.874ZM987.677 615.146C987.677 615.83 987.668 616.514 987.649 617.195L966.61 616.507C966.621 616.054 966.627 615.6 966.627 615.146C966.627 608.907 965.535 602.92 963.537 597.366L983.325 590.036C986.185 597.979 987.677 606.446 987.677 615.146ZM965.593 616.474L918.658 614.939C918.643 614.631 918.594 614.332 918.515 614.045L962.582 597.72C964.539 603.163 965.608 609.03 965.608 615.146C965.61 615.59 965.604 616.033 965.593 616.474ZM863.536 613.818L910.47 615.353C910.486 615.661 910.535 615.961 910.614 616.247L866.547 632.573C864.589 627.129 863.521 621.262 863.521 615.146C863.519 614.702 863.525 614.259 863.536 613.818ZM917.777 612.583L952.023 580.295C956.466 585.125 959.998 590.812 962.347 597.081L918.28 613.405C918.145 613.111 917.976 612.836 917.777 612.583ZM917.314 612.085C917.049 611.844 916.752 611.637 916.43 611.472L934.268 567.767C940.843 570.545 946.722 574.67 951.562 579.795L917.314 612.085ZM915.804 611.213C915.557 611.135 915.301 611.079 915.037 611.048L916.563 563.828C922.579 564.062 928.331 565.347 933.642 567.508L915.804 611.213ZM914.359 611.025C914.072 611.04 913.793 611.084 913.525 611.155L897.915 566.592C903.136 564.774 908.737 563.784 914.564 563.784C915.006 563.784 915.446 563.789 915.884 563.801L914.359 611.025ZM912.886 611.382C912.575 611.522 912.283 611.702 912.018 611.914L879.927 577.455C884.899 572.827 890.783 569.178 897.276 566.82L912.886 611.382ZM911.524 612.379C911.322 612.603 911.146 612.85 910.998 613.114L868.369 593.314C871.091 587.507 874.859 582.293 879.434 577.921L911.524 612.379ZM910.712 613.731C910.603 614.029 910.53 614.344 910.492 614.671L863.561 613.135C863.824 606.312 865.413 599.823 868.081 593.928L910.712 613.731ZM910.847 616.886C910.957 617.123 911.088 617.348 911.24 617.558L910.961 618.076L877.105 649.996C872.663 645.166 869.13 639.479 866.782 633.21L910.847 616.886ZM909.936 619.976L888.681 659.397C884.574 656.956 880.833 653.955 877.567 650.496L909.936 619.976ZM912.247 618.549C912.391 618.648 912.542 618.738 912.699 618.818L894.86 662.524C893.143 661.798 891.473 660.979 889.855 660.075L912.247 618.549ZM913.325 619.08C913.572 619.158 913.828 619.213 914.093 619.244L912.568 666.465C906.551 666.231 900.799 664.945 895.488 662.784L913.325 619.08ZM914.564 666.507C914.123 666.507 913.683 666.502 913.244 666.49L914.77 619.265C915.057 619.251 915.336 619.207 915.604 619.136L931.214 663.699C925.993 665.517 920.392 666.507 914.564 666.507ZM916.243 618.909C916.467 618.807 916.681 618.688 916.881 618.549L939.272 660.075C936.907 661.398 934.428 662.537 931.851 663.472L916.243 618.909ZM920.009 621.492L949.202 652.838C946.532 655.324 943.599 657.527 940.45 659.398L920.009 621.492ZM918.733 619.124L917.89 617.558C917.977 617.436 918.059 617.31 918.132 617.178L960.761 636.979C958.04 642.785 954.27 648 949.697 652.372L918.733 619.124ZM918.417 616.561C918.526 616.261 918.599 615.946 918.637 615.622L965.568 617.157C965.305 623.982 963.716 630.47 961.048 636.364L918.417 616.561ZM894.475 663.471L886.462 683.102C884.02 682.079 881.634 680.921 879.311 679.633L889.372 660.975C891.02 661.896 892.723 662.731 894.475 663.471ZM895.102 663.729C900.523 665.935 906.394 667.248 912.535 667.486L911.851 688.66C903.237 688.347 894.886 686.538 887.09 683.359L895.102 663.729ZM913.212 667.512C913.662 667.523 914.112 667.529 914.564 667.529C920.51 667.529 926.224 666.519 931.551 664.663L938.561 684.673C930.946 687.327 922.861 688.709 914.566 688.709C913.885 688.709 913.206 688.699 912.529 688.68L913.212 667.512ZM932.19 664.437C934.816 663.483 937.344 662.321 939.757 660.975L949.818 679.633C946.409 681.526 942.861 683.136 939.2 684.45L932.19 664.437ZM983.093 589.396L963.301 596.728C960.905 590.33 957.299 584.526 952.765 579.597L968.147 565.095C974.748 572.235 979.787 580.476 983.093 589.396ZM966.263 563.128C966.744 563.612 967.216 564.103 967.683 564.598L952.304 579.099C947.364 573.865 941.365 569.657 934.655 566.822L942.666 547.19C951.382 550.838 959.386 556.209 966.263 563.128ZM942.039 546.932L934.026 566.563C928.605 564.357 922.734 563.044 916.594 562.806L917.278 541.631C925.892 541.944 934.243 543.753 942.039 546.932ZM914.564 541.581C915.244 541.581 915.924 541.591 916.601 541.609L915.917 562.779C915.467 562.768 915.017 562.762 914.564 562.762C908.619 562.762 902.905 563.772 897.578 565.628L890.568 545.618C898.183 542.963 906.268 541.581 914.564 541.581ZM889.929 545.842L896.939 565.854C890.312 568.26 884.306 571.984 879.234 576.708L864.821 561.231C872.171 554.352 880.697 549.158 889.929 545.842ZM862.866 563.128C863.347 562.644 863.835 562.169 864.327 561.699L878.739 577.173C874.071 581.634 870.222 586.957 867.445 592.884L848.293 583.988C851.852 576.333 856.75 569.281 862.866 563.128ZM848.008 584.607L867.159 593.503C864.436 599.518 862.814 606.139 862.546 613.104L841.502 612.416C841.852 602.673 844.079 593.263 848.008 584.607ZM841.452 615.146C841.452 614.462 841.461 613.778 841.48 613.097L862.519 613.785C862.508 614.238 862.502 614.691 862.502 615.146C862.502 621.385 863.594 627.372 865.592 632.926L845.804 640.256C842.944 632.313 841.452 623.844 841.452 615.146ZM846.036 640.896L865.828 633.564C868.224 639.963 871.83 645.766 876.364 650.696L860.982 665.198C854.382 658.057 849.342 649.816 846.036 640.896ZM862.866 667.164C862.385 666.68 861.913 666.189 861.446 665.696L876.825 651.195C880.166 654.734 883.993 657.803 888.196 660.298L878.132 678.963C872.618 675.763 867.488 671.814 862.866 667.164ZM987.198 748.958H841.931L878.341 681.432C880.727 682.756 883.179 683.945 885.69 684.997L883.122 691.288C882.539 691.102 881.919 691.002 881.274 691.002C877.906 691.002 875.176 693.749 875.176 697.137C875.176 700.526 877.906 703.273 881.274 703.273C884.642 703.273 887.373 700.526 887.373 697.137C887.373 694.637 885.887 692.487 883.755 691.531L886.317 685.253C894.334 688.523 902.926 690.383 911.785 690.705L911.578 697.14C908.275 697.215 905.621 699.931 905.621 703.273C905.621 706.661 908.351 709.409 911.72 709.409C915.089 709.409 917.818 706.661 917.818 703.273C917.818 700.066 915.373 697.435 912.256 697.161L912.463 690.726C913.163 690.746 913.864 690.756 914.566 690.756C923.096 690.756 931.408 689.334 939.238 686.606L941.43 692.862C939.355 693.841 937.917 695.961 937.917 698.42C937.917 701.809 940.647 704.556 944.015 704.556C947.382 704.556 950.113 701.809 950.113 698.42C950.113 695.032 947.382 692.284 944.015 692.284C943.331 692.284 942.672 692.399 942.059 692.609L939.877 686.381C943.638 685.031 947.285 683.378 950.788 681.434L987.198 748.958ZM950.998 678.962L940.935 660.296C944.16 658.382 947.164 656.128 949.897 653.583L964.31 669.06C960.21 672.896 955.745 676.207 950.998 678.962ZM966.263 667.164C965.782 667.648 965.294 668.124 964.802 668.593L950.39 653.119C955.058 648.658 958.905 643.335 961.682 637.408L980.835 646.304C977.277 653.958 972.379 661.01 966.263 667.164ZM981.121 645.685L961.97 636.79C964.693 630.775 966.315 624.152 966.583 617.188L987.627 617.876C987.277 627.619 985.05 637.03 981.121 645.685Z" fill="#A991F9" fill-opacity="0.8"/>
<path d="M1095.98 663.474H1017.62V779.004H1095.98V663.474Z" fill="#A991F9" fill-opacity="0.8"/>
<path d="M1162.88 708.39H1084.51V778.351H1162.88V708.39Z" fill="#A991F9" fill-opacity="0.8"/>
<path d="M824.571 698.116H780.611V756.826H824.571V698.116Z" fill="#A991F9" fill-opacity="0.8"/>
<path d="M1112.23 553.604H1056.8V779.002H1112.23V553.604Z" fill="#A991F9" fill-opacity="0.8"/>
<path d="M1203.49 779.002H1130.39V647.387H1185.81L1203.49 779.002Z" fill="#A991F9" fill-opacity="0.8"/>
<path d="M1235.51 748.958H1171.48V779.004H1235.51V748.958Z" fill="#A991F9" fill-opacity="0.8"/>
<path d="M1099.8 506.515H1097.89V567.767H1099.8V506.515Z" fill="#A991F9" fill-opacity="0.8"/>
<path d="M1106.26 519.659H1104.34V580.911H1106.26V519.659Z" fill="#A991F9" fill-opacity="0.8"/>
<path d="M1093.95 528.115H1092.04V589.366H1093.95V528.115Z" fill="#A991F9" fill-opacity="0.8"/>
<path d="M1159.41 636.749H1133.25V657.483H1159.41V636.749Z" fill="#A991F9" fill-opacity="0.8"/>
<path d="M1156.55 629.357H1136.12V641.011H1156.55V629.357Z" fill="#A991F9" fill-opacity="0.8"/>
<path d="M1174.82 642.822H1169.81V651.194H1174.82V642.822Z" fill="#A991F9" fill-opacity="0.8"/>
<path d="M1183.77 635.183H1176.6V651.194H1183.77V635.183Z" fill="#A991F9" fill-opacity="0.8"/>
<path d="M846.839 604.448H780.389V819.961H846.839V604.448Z" fill="#6158E9"/>
<path d="M851.804 605.726H775.425V607.909H851.804V605.726Z" fill="#6158E9"/>
<path d="M849.737 635.998H777.491V638.175H849.737V635.998Z" fill="#6158E9"/>
<path d="M849.737 665.315H777.491V667.492H849.737V665.315Z" fill="#6158E9"/>
<path d="M849.737 694.633H777.491V696.809H849.737V694.633Z" fill="#6158E9"/>
<path d="M849.737 723.95H777.491V726.127H849.737V723.95Z" fill="#6158E9"/>
<path d="M849.737 753.268H777.491V755.444H849.737V753.268Z" fill="#6158E9"/>
<path d="M849.737 782.585H777.491V784.762H849.737V782.585Z" fill="#6158E9"/>
<path d="M854.33 599.772H772.899V605.726H854.33V599.772Z" fill="#6158E9"/>
<path opacity="0.29" d="M793.275 614.989H786.37V632.205H793.275V614.989Z" fill="#6158E9"/>
<path d="M808.718 614.989H801.814V632.205H808.718V614.989Z" fill="#6158E9"/>
<path d="M824.162 614.989H817.257V632.205H824.162V614.989Z" fill="#6158E9"/>
<path d="M839.604 614.989H832.699V632.205H839.604V614.989Z" fill="#6158E9"/>
<path d="M793.275 643.137H786.37V660.353H793.275V643.137Z" fill="#6158E9"/>
<path opacity="0.29" d="M808.718 643.137H801.814V660.353H808.718V643.137Z" fill="#6158E9"/>
<path d="M824.162 643.137H817.257V660.353H824.162V643.137Z" fill="#6158E9"/>
<path d="M839.604 643.137H832.699V660.353H839.604V643.137Z" fill="#6158E9"/>
<path d="M793.275 672.454H786.37V689.671H793.275V672.454Z" fill="#6158E9"/>
<path d="M808.718 672.454H801.814V689.671H808.718V672.454Z" fill="#6158E9"/>
<path d="M824.162 672.454H817.257V689.671H824.162V672.454Z" fill="#6158E9"/>
<path opacity="0.29" d="M839.604 672.454H832.699V689.671H839.604V672.454Z" fill="#6158E9"/>
<path d="M793.275 701.772H786.37V718.988H793.275V701.772Z" fill="#6158E9"/>
<path opacity="0.29" d="M808.718 701.772H801.814V718.988H808.718V701.772Z" fill="#6158E9"/>
<path opacity="0.29" d="M824.162 701.772H817.257V718.988H824.162V701.772Z" fill="#6158E9"/>
<path d="M839.604 701.772H832.699V718.988H839.604V701.772Z" fill="#6158E9"/>
<path opacity="0.29" d="M793.275 731.089H786.37V748.305H793.275V731.089Z" fill="#6158E9"/>
<path d="M808.718 731.089H801.814V748.305H808.718V731.089Z" fill="#6158E9"/>
<path d="M824.162 731.089H817.257V748.305H824.162V731.089Z" fill="#6158E9"/>
<path d="M839.604 731.089H832.699V748.305H839.604V731.089Z" fill="#6158E9"/>
<path d="M793.275 760.406H786.37V777.623H793.275V760.406Z" fill="#6158E9"/>
<path d="M808.718 760.406H801.814V777.623H808.718V760.406Z" fill="#6158E9"/>
<path opacity="0.29" d="M824.162 760.406H817.257V777.623H824.162V760.406Z" fill="#6158E9"/>
<path d="M839.604 760.406H832.699V777.623H839.604V760.406Z" fill="#6158E9"/>
<path d="M793.275 789.724H786.37V806.94H793.275V789.724Z" fill="#6158E9"/>
<path opacity="0.29" d="M808.718 789.724H801.814V806.94H808.718V789.724Z" fill="#6158E9"/>
<path d="M824.162 789.724H817.257V806.94H824.162V789.724Z" fill="#6158E9"/>
<path opacity="0.29" d="M839.604 789.724H832.699V806.94H839.604V789.724Z" fill="#6158E9"/>
<path d="M807.184 591.556H784.583V602.749H807.184V591.556Z" fill="#6158E9"/>
<path d="M808.717 591.236H783.05V593.149H808.717V591.236Z" fill="#6158E9"/>
<path d="M685.149 819.961H596.632V615.194L685.149 593.409V819.961Z" fill="#6158E9"/>
<path d="M600.52 611.59H592.743V819.961H600.52V611.59Z" fill="#6158E9"/>
<path d="M622.65 605.719H614.873V819.961H622.65V605.719Z" fill="#6158E9"/>
<path d="M644.78 599.62H637.002V819.961H644.78V599.62Z" fill="#6158E9"/>
<path d="M666.908 594.651H659.13V819.961H666.908V594.651Z" fill="#6158E9"/>
<path d="M689.037 589.366H681.26V819.961H689.037V589.366Z" fill="#6158E9"/>
<path opacity="0.29" d="M612.857 629.076H602.534V644.901H612.857V629.076Z" fill="#6158E9"/>
<path opacity="0.29" d="M634.987 629.076H624.664V644.901H634.987V629.076Z" fill="#6158E9"/>
<path d="M657.116 629.076H646.793V644.901H657.116V629.076Z" fill="#6158E9"/>
<path opacity="0.29" d="M679.246 629.076H668.923V644.901H679.246V629.076Z" fill="#6158E9"/>
<path d="M612.857 656.631H602.534V672.456H612.857V656.631Z" fill="#6158E9"/>
<path d="M634.987 656.631H624.664V672.456H634.987V656.631Z" fill="#6158E9"/>
<path opacity="0.29" d="M657.116 656.631H646.793V672.456H657.116V656.631Z" fill="#6158E9"/>
<path opacity="0.29" d="M679.246 656.631H668.923V672.456H679.246V656.631Z" fill="#6158E9"/>
<path opacity="0.29" d="M612.857 684.186H602.534V700.011H612.857V684.186Z" fill="#6158E9"/>
<path opacity="0.29" d="M634.987 684.186H624.664V700.011H634.987V684.186Z" fill="#6158E9"/>
<path opacity="0.29" d="M657.116 684.186H646.793V700.011H657.116V684.186Z" fill="#6158E9"/>
<path d="M679.246 684.186H668.923V700.011H679.246V684.186Z" fill="#6158E9"/>
<path opacity="0.29" d="M612.857 711.741H602.534V727.566H612.857V711.741Z" fill="#6158E9"/>
<path d="M634.987 711.741H624.664V727.566H634.987V711.741Z" fill="#6158E9"/>
<path opacity="0.29" d="M657.116 711.741H646.793V727.566H657.116V711.741Z" fill="#6158E9"/>
<path opacity="0.29" d="M679.246 711.741H668.923V727.566H679.246V711.741Z" fill="#6158E9"/>
<path opacity="0.29" d="M612.857 739.295H602.534V755.12H612.857V739.295Z" fill="#6158E9"/>
<path opacity="0.29" d="M634.987 739.295H624.664V755.12H634.987V739.295Z" fill="#6158E9"/>
<path d="M657.116 739.295H646.793V755.12H657.116V739.295Z" fill="#6158E9"/>
<path opacity="0.29" d="M679.246 739.295H668.923V755.12H679.246V739.295Z" fill="#6158E9"/>
<path d="M612.857 766.85H602.534V782.674H612.857V766.85Z" fill="#6158E9"/>
<path d="M634.987 766.85H624.664V782.674H634.987V766.85Z" fill="#6158E9"/>
<path opacity="0.29" d="M657.116 766.85H646.793V782.674H657.116V766.85Z" fill="#6158E9"/>
<path opacity="0.29" d="M679.246 766.85H668.923V782.674H679.246V766.85Z" fill="#6158E9"/>
<path opacity="0.29" d="M612.857 794.404H602.534V810.228H612.857V794.404Z" fill="#6158E9"/>
<path d="M634.987 794.404H624.664V810.228H634.987V794.404Z" fill="#6158E9"/>
<path opacity="0.29" d="M657.116 794.404H646.793V810.228H657.116V794.404Z" fill="#6158E9"/>
<path d="M679.246 794.404H668.923V810.228H679.246V794.404Z" fill="#6158E9"/>
<path d="M344.124 625.004V627.129H342.02V633.188H379.058V819.961H318.279V642.933V633.188V627.129H316.073V625.004H344.124Z" fill="#6158E9"/>
<path d="M499.727 709.841H447.667V819.961H499.727V709.841Z" fill="#6158E9"/>
<path d="M263.08 684.598H220.762V819.961H263.08V684.598Z" fill="#6158E9"/>
<path d="M300.814 712.801H254.698V819.961H300.814V712.801Z" fill="#6158E9"/>
<path d="M254.698 679.165H235.987V695.364H254.698V679.165Z" fill="#6158E9"/>
<path d="M307.022 711.036H257.863V714.998H307.022V711.036Z" fill="#6158E9"/>
<path d="M347.565 758.763H295.862V819.961H347.565V758.763Z" fill="#6158E9"/>
<path d="M170.813 708.986H128.756V819.961H170.813V708.986Z" fill="#6158E9"/>
<path d="M147.588 764.289H92.2583V819.961H147.588V764.289Z" fill="#6158E9"/>
<path d="M65.9417 755.19H31.3328V819.961H65.9417V755.19Z" fill="#6158E9"/>
<path d="M141.022 799.672H59.2234V819.961H141.022V799.672Z" fill="#6158E9"/>
<path d="M41.9239 793.115H0V819.961H41.9239V793.115Z" fill="#6158E9"/>
<path d="M235.987 779.002H170.813V819.961H235.987V779.002Z" fill="#6158E9"/>
<path d="M463.512 802.316H361.992V819.961H463.512V802.316Z" fill="#6158E9"/>
<path d="M643.503 802.316H541.984V819.961H643.503V802.316Z" fill="#6158E9"/>
<path d="M459.559 750.516H420.973L404.655 811.139H459.559V750.516Z" fill="#6158E9"/>
<path d="M478.468 662.309H477.393V729.559H478.468V662.309Z" fill="#6158E9"/>
<path d="M484.202 685.066H482.769V724.748H484.202V685.066Z" fill="#6158E9"/>
<path d="M494.609 692.099H475.087V711.741H494.609V692.099Z" fill="#6158E9"/>
<path d="M497.647 690.572H471.792V692.331H497.647V690.572Z" fill="#6158E9"/>
<path d="M553.338 763.161H490.259V819.959H553.338V763.161Z" fill="#6158E9"/>
<path d="M581.801 700.635H541.274V810.23H581.801V700.635Z" fill="#6158E9"/>
<path d="M764.297 721.239H699.549V819.961H764.297V721.239Z" fill="#6158E9"/>
<path d="M753.067 783.584H679.246V819.961H753.067V783.584Z" fill="#6158E9"/>
<path d="M808.718 806.94H760.713V819.961H808.718V806.94Z" fill="#6158E9"/>
<path d="M912.7 783.584H834.651V819.961H912.7V783.584Z" fill="#6158E9"/>
<path d="M865.746 819.961H962.865V688.344H865.746V819.961Z" fill="#6158E9"/>
<path d="M863.236 688.345H968.531V683.296H863.236V688.345Z" fill="#6158E9"/>
<path d="M915.883 696.277H958.564V669.593H915.883V696.277Z" fill="#6158E9"/>
<path d="M894.774 685.82H901.941V669.593H894.774V685.82Z" fill="#6158E9"/>
<path d="M879.721 685.82H887.606V669.593H879.721V685.82Z" fill="#6158E9"/>
<path d="M1029.63 819.961H1106.51V627.741H1029.63V819.961Z" fill="#6158E9"/>
<path d="M1027.44 629.869H1108.69V624.435H1027.44V629.869Z" fill="#6158E9"/>
<path d="M1032.21 643.305H1103.92V617.481H1032.21V643.305Z" fill="#6158E9"/>
<path d="M1070.04 635.131H1098.43V606.916H1070.04V635.131Z" fill="#6158E9"/>
<path d="M1082 614.868H1098.43V600.014H1086.65L1082 614.868Z" fill="#6158E9"/>
<path d="M1090.22 620.77H1091.81V587.687H1090.22V620.77Z" fill="#6158E9"/>
<path d="M1089.58 585.972C1089.58 586.919 1090.22 587.686 1091.01 587.686C1091.8 587.686 1092.44 586.919 1092.44 585.972C1092.44 585.024 1091.8 584.257 1091.01 584.257C1090.22 584.257 1089.58 585.024 1089.58 585.972Z" fill="#6158E9"/>
<path d="M1130.39 740.608H1095.98V819.961H1130.39V740.608Z" fill="#6158E9"/>
<path d="M1037.22 701.919H997.982V819.961H1037.22V701.919Z" fill="#6158E9"/>
<path d="M1017.62 819.961H962.348V756.827L1009 777.623L1017.62 819.961Z" fill="#6158E9"/>
<path d="M1203.49 785.673H1119.09V819.961H1203.49V785.673Z" fill="#6158E9"/>
<path d="M1221.35 683.085H1172.32V819.961H1221.35V683.085Z" fill="#6158E9"/>
<path d="M1291.11 794.404H1209.88V819.96H1291.11V794.404Z" fill="#6158E9"/>
<path d="M1223.59 680.579H1169.81V685.066H1223.59V680.579Z" fill="#6158E9"/>
<path d="M1214.77 661.266H1213.7V688.849H1214.77V661.266Z" fill="#6158E9"/>
<path d="M1207.61 664.758H1206.53V686.885H1207.61V664.758Z" fill="#6158E9"/>
<path d="M1239.5 734.649H1217.64V797.361H1248.82L1239.5 734.649Z" fill="#6158E9"/>
<g opacity="0.52">
<path d="M228.331 691.451H225.128V694.674H228.331V691.451Z" fill="white"/>
<path d="M234.767 691.451H231.564V694.674H234.767V691.451Z" fill="white"/>
<path d="M228.331 699.023H225.128V702.246H228.331V699.023Z" fill="white"/>
<path d="M234.767 699.023H231.564V702.246H234.767V699.023Z" fill="white"/>
<path d="M228.331 706.344H225.128V709.566H228.331V706.344Z" fill="white"/>
<path d="M241.92 691.451H238.717V694.674H241.92V691.451Z" fill="white"/>
</g>
<path opacity="0.5" d="M461.744 594.651H459.559V606.818H461.744V594.651Z" fill="white"/>
<path opacity="0.5" d="M469.273 594.651H467.088V606.818H469.273V594.651Z" fill="white"/>
<path opacity="0.5" d="M476.802 594.651H474.618V606.818H476.802V594.651Z" fill="white"/>
<path opacity="0.5" d="M484.332 594.651H482.147V606.818H484.332V594.651Z" fill="white"/>
<path opacity="0.5" d="M491.861 594.651H489.677V606.818H491.861V594.651Z" fill="white"/>
<path opacity="0.5" d="M499.39 594.651H497.206V606.818H499.39V594.651Z" fill="white"/>
<path opacity="0.5" d="M506.92 594.651H504.735V606.818H506.92V594.651Z" fill="white"/>
<path opacity="0.5" d="M514.447 594.651H512.263V606.818H514.447V594.651Z" fill="white"/>
<path opacity="0.5" d="M521.977 594.651H519.792V606.818H521.977V594.651Z" fill="white"/>
<path opacity="0.5" d="M529.506 594.651H527.322V606.818H529.506V594.651Z" fill="white"/>
<path opacity="0.5" d="M537.036 594.651H534.851V606.818H537.036V594.651Z" fill="white"/>
<path opacity="0.5" d="M461.744 611.59H459.559V623.758H461.744V611.59Z" fill="white"/>
<path opacity="0.5" d="M469.273 611.59H467.088V623.758H469.273V611.59Z" fill="white"/>
<path opacity="0.5" d="M476.802 611.59H474.618V623.758H476.802V611.59Z" fill="white"/>
<path opacity="0.5" d="M484.332 611.59H482.147V623.758H484.332V611.59Z" fill="white"/>
<path opacity="0.5" d="M491.861 611.59H489.677V623.758H491.861V611.59Z" fill="white"/>
<path opacity="0.5" d="M499.39 611.59H497.206V623.758H499.39V611.59Z" fill="white"/>
<path opacity="0.5" d="M506.92 611.59H504.735V623.758H506.92V611.59Z" fill="white"/>
<path opacity="0.5" d="M514.447 611.59H512.263V623.758H514.447V611.59Z" fill="white"/>
<path opacity="0.5" d="M521.977 611.59H519.792V623.758H521.977V611.59Z" fill="white"/>
<path opacity="0.5" d="M529.506 611.59H527.322V623.758H529.506V611.59Z" fill="white"/>
<path opacity="0.5" d="M537.036 611.59H534.851V623.758H537.036V611.59Z" fill="white"/>
<path opacity="0.5" d="M461.744 628.53H459.559V640.698H461.744V628.53Z" fill="white"/>
<path opacity="0.5" d="M469.273 628.53H467.088V640.698H469.273V628.53Z" fill="white"/>
<path opacity="0.5" d="M476.802 628.53H474.618V640.698H476.802V628.53Z" fill="white"/>
<path opacity="0.5" d="M484.332 628.53H482.147V640.698H484.332V628.53Z" fill="white"/>
<path opacity="0.5" d="M491.861 628.53H489.677V640.698H491.861V628.53Z" fill="white"/>
<path opacity="0.5" d="M499.39 628.53H497.206V640.698H499.39V628.53Z" fill="white"/>
<path opacity="0.5" d="M506.92 628.53H504.735V640.698H506.92V628.53Z" fill="white"/>
<path opacity="0.5" d="M514.447 628.53H512.263V640.698H514.447V628.53Z" fill="white"/>
<path opacity="0.5" d="M521.977 628.53H519.792V640.698H521.977V628.53Z" fill="white"/>
<path opacity="0.5" d="M529.506 628.53H527.322V640.698H529.506V628.53Z" fill="white"/>
<path opacity="0.5" d="M537.036 628.53H534.851V640.698H537.036V628.53Z" fill="white"/>
<path opacity="0.5" d="M484.332 645.47H482.147V657.637H484.332V645.47Z" fill="white"/>
<path opacity="0.5" d="M491.861 645.47H489.677V657.637H491.861V645.47Z" fill="white"/>
<path opacity="0.5" d="M499.39 645.47H497.206V657.637H499.39V645.47Z" fill="white"/>
<path opacity="0.5" d="M506.92 645.47H504.735V657.637H506.92V645.47Z" fill="white"/>
<path opacity="0.5" d="M514.447 645.47H512.263V657.637H514.447V645.47Z" fill="white"/>
<path opacity="0.5" d="M521.977 645.47H519.792V657.637H521.977V645.47Z" fill="white"/>
<path opacity="0.5" d="M529.506 645.47H527.322V657.637H529.506V645.47Z" fill="white"/>
<path opacity="0.5" d="M537.036 645.47H534.851V657.637H537.036V645.47Z" fill="white"/>
<path opacity="0.5" d="M491.861 663.349H489.677V675.516H491.861V663.349Z" fill="white"/>
<path opacity="0.5" d="M499.39 663.349H497.206V675.516H499.39V663.349Z" fill="white"/>
<path opacity="0.5" d="M506.92 663.349H504.735V675.516H506.92V663.349Z" fill="white"/>
<path opacity="0.5" d="M514.447 663.349H512.263V675.516H514.447V663.349Z" fill="white"/>
<path opacity="0.5" d="M521.977 663.349H519.792V675.516H521.977V663.349Z" fill="white"/>
<path opacity="0.5" d="M529.506 663.349H527.322V675.516H529.506V663.349Z" fill="white"/>
<path opacity="0.5" d="M537.036 663.349H534.851V675.516H537.036V663.349Z" fill="white"/>
<path opacity="0.33" d="M610.277 624.851H605.115V638.023H610.277V624.851Z" fill="white"/>
<path opacity="0.33" d="M610.277 650.046H605.115V663.218H610.277V650.046Z" fill="white"/>
<path opacity="0.33" d="M610.277 675.24H605.115V688.412H610.277V675.24Z" fill="white"/>
<path opacity="0.33" d="M610.277 700.435H605.115V713.607H610.277V700.435Z" fill="white"/>
<path opacity="0.33" d="M610.277 724.189H605.115V737.361H610.277V724.189Z" fill="white"/>
<path opacity="0.33" d="M610.277 749.383H605.115V762.555H610.277V749.383Z" fill="white"/>
<path opacity="0.33" d="M632.406 624.851H627.245V638.023H632.406V624.851Z" fill="white"/>
<path opacity="0.33" d="M632.406 650.046H627.245V663.218H632.406V650.046Z" fill="white"/>
<path opacity="0.33" d="M632.406 675.24H627.245V688.412H632.406V675.24Z" fill="white"/>
<path opacity="0.33" d="M632.406 700.435H627.245V713.607H632.406V700.435Z" fill="white"/>
<path opacity="0.33" d="M632.406 724.189H627.245V737.361H632.406V724.189Z" fill="white"/>
<path opacity="0.33" d="M632.406 749.383H627.245V762.555H632.406V749.383Z" fill="white"/>
<path opacity="0.33" d="M654.536 624.851H649.374V638.023H654.536V624.851Z" fill="white"/>
<path opacity="0.33" d="M654.536 650.046H649.374V663.218H654.536V650.046Z" fill="white"/>
<path opacity="0.33" d="M654.536 675.24H649.374V688.412H654.536V675.24Z" fill="white"/>
<path opacity="0.33" d="M654.536 700.435H649.374V713.607H654.536V700.435Z" fill="white"/>
<path opacity="0.33" d="M654.536 724.189H649.374V737.361H654.536V724.189Z" fill="white"/>
<path opacity="0.33" d="M654.536 749.383H649.374V762.555H654.536V749.383Z" fill="white"/>
<path opacity="0.33" d="M676.666 624.851H671.504V638.023H676.666V624.851Z" fill="white"/>
<path opacity="0.33" d="M676.666 650.046H671.504V663.218H676.666V650.046Z" fill="white"/>
<path opacity="0.33" d="M676.666 675.24H671.504V688.412H676.666V675.24Z" fill="white"/>
<path opacity="0.33" d="M676.666 700.435H671.504V713.607H676.666V700.435Z" fill="white"/>
<path opacity="0.33" d="M676.666 724.189H671.504V737.361H676.666V724.189Z" fill="white"/>
<path opacity="0.33" d="M676.666 749.383H671.504V762.555H676.666V749.383Z" fill="white"/>
<path opacity="0.5" d="M526.272 441.163H521.978V452.691H526.272V441.163Z" fill="white"/>
<path opacity="0.5" d="M536.869 441.163H532.575V452.691H536.869V441.163Z" fill="white"/>
<path opacity="0.5" d="M547.464 441.163H543.17V452.691H547.464V441.163Z" fill="white"/>
<path opacity="0.5" d="M558.061 441.163H553.767V452.691H558.061V441.163Z" fill="white"/>
<path opacity="0.5" d="M526.272 460.362H521.978V471.889H526.272V460.362Z" fill="white"/>
<path opacity="0.5" d="M536.869 460.362H532.575V471.889H536.869V460.362Z" fill="white"/>
<path opacity="0.5" d="M547.464 460.362H543.17V471.889H547.464V460.362Z" fill="white"/>
<path opacity="0.5" d="M558.061 460.362H553.767V471.889H558.061V460.362Z" fill="white"/>
<path opacity="0.5" d="M526.272 479.56H521.978V491.088H526.272V479.56Z" fill="white"/>
<path opacity="0.5" d="M536.869 479.56H532.575V491.088H536.869V479.56Z" fill="white"/>
<path opacity="0.5" d="M570.082 441.163H565.788V452.691H570.082V441.163Z" fill="white"/>
<path opacity="0.4" d="M238.717 557.947H235.987V568.514H238.717V557.947Z" fill="white"/>
<path opacity="0.4" d="M248.355 557.947H245.625V568.514H248.355V557.947Z" fill="white"/>
<path opacity="0.4" d="M259.627 557.947H256.897V568.514H259.627V557.947Z" fill="white"/>
<path opacity="0.4" d="M269.263 557.947H266.533V568.514H269.263V557.947Z" fill="white"/>
<path opacity="0.4" d="M217.308 557.947H214.578V568.514H217.308V557.947Z" fill="white"/>
<path opacity="0.4" d="M226.944 557.947H224.214V568.514H226.944V557.947Z" fill="white"/>
<path opacity="0.4" d="M238.717 576.297H235.987V586.865H238.717V576.297Z" fill="white"/>
<path opacity="0.4" d="M248.355 576.297H245.625V586.865H248.355V576.297Z" fill="white"/>
<path opacity="0.4" d="M259.627 576.297H256.897V586.865H259.627V576.297Z" fill="white"/>
<path opacity="0.4" d="M269.263 576.297H266.533V586.865H269.263V576.297Z" fill="white"/>
<path opacity="0.4" d="M217.308 576.298H214.578V586.865H217.308V576.298Z" fill="white"/>
<path opacity="0.4" d="M226.944 576.297H224.214V586.865H226.944V576.297Z" fill="white"/>
<path opacity="0.4" d="M238.717 594.646H235.987V605.213H238.717V594.646Z" fill="white"/>
<path opacity="0.4" d="M248.355 594.646H245.625V605.213H248.355V594.646Z" fill="white"/>
<path opacity="0.4" d="M259.627 594.646H256.897V605.213H259.627V594.646Z" fill="white"/>
<path opacity="0.4" d="M269.263 594.646H266.533V605.213H269.263V594.646Z" fill="white"/>
<path opacity="0.4" d="M217.308 594.646H214.578V605.213H217.308V594.646Z" fill="white"/>
<path opacity="0.4" d="M226.944 594.646H224.214V605.213H226.944V594.646Z" fill="white"/>
<path opacity="0.5" d="M749.88 638.932H745.649V655.32H749.88V638.932Z" fill="white"/>
<path opacity="0.5" d="M762.827 638.932H758.597V655.32H762.827V638.932Z" fill="white"/>
<path opacity="0.5" d="M775.015 638.932H770.784V655.32H775.015V638.932Z" fill="white"/>
<path opacity="0.33" d="M1040.43 642.338H1037.22V651.554H1040.43V642.338Z" fill="white"/>
<path opacity="0.33" d="M1050.5 642.338H1047.29V651.554H1050.5V642.338Z" fill="white"/>
<path opacity="0.33" d="M1040.43 642.338H1037.22V651.554H1040.43V642.338Z" fill="white"/>
<path opacity="0.33" d="M1050.5 642.338H1047.29V651.554H1050.5V642.338Z" fill="white"/>
<path opacity="0.33" d="M1060.01 642.338H1056.8V651.554H1060.01V642.338Z" fill="white"/>
<path opacity="0.33" d="M1070.08 642.338H1066.87V651.554H1070.08V642.338Z" fill="white"/>
<path opacity="0.33" d="M1040.43 658.865H1037.22V668.081H1040.43V658.865Z" fill="white"/>
<path opacity="0.33" d="M1050.5 658.865H1047.29V668.081H1050.5V658.865Z" fill="white"/>
<path opacity="0.33" d="M1040.43 658.865H1037.22V668.081H1040.43V658.865Z" fill="white"/>
<path opacity="0.33" d="M1050.5 658.865H1047.29V668.081H1050.5V658.865Z" fill="white"/>
<path opacity="0.33" d="M1060.01 658.865H1056.8V668.081H1060.01V658.865Z" fill="white"/>
<path opacity="0.33" d="M1070.08 658.865H1066.87V668.081H1070.08V658.865Z" fill="white"/>
<path opacity="0.33" d="M1040.43 676.454H1037.22V685.671H1040.43V676.454Z" fill="white"/>
<path opacity="0.33" d="M1050.5 676.454H1047.29V685.671H1050.5V676.454Z" fill="white"/>
<path opacity="0.33" d="M1040.43 676.454H1037.22V685.671H1040.43V676.454Z" fill="white"/>
<path opacity="0.33" d="M1050.5 676.454H1047.29V685.671H1050.5V676.454Z" fill="white"/>
<path opacity="0.33" d="M1060.01 676.454H1056.8V685.671H1060.01V676.454Z" fill="white"/>
<path opacity="0.33" d="M1070.08 676.454H1066.87V685.671H1070.08V676.454Z" fill="white"/>
<path opacity="0.33" d="M1081.09 642.338H1077.87V651.554H1081.09V642.338Z" fill="white"/>
<path opacity="0.33" d="M1081.09 658.865H1077.87V668.081H1081.09V658.865Z" fill="white"/>
<path opacity="0.33" d="M1091.15 642.338H1087.94V651.554H1091.15V642.338Z" fill="white"/>
<path opacity="0.33" d="M789.822 614.989H786.37V629.357H789.822V614.989Z" fill="white"/>
<path opacity="0.33" d="M806.992 614.989H803.54V629.357H806.992V614.989Z" fill="white"/>
<path opacity="0.33" d="M824.161 614.989H820.708V629.357H824.161V614.989Z" fill="white"/>
<path opacity="0.33" d="M841.33 614.989H837.878V629.357H841.33V614.989Z" fill="white"/>
<path opacity="0.33" d="M789.822 644.562H786.37V658.93H789.822V644.562Z" fill="white"/>
<path opacity="0.33" d="M806.992 644.562H803.54V658.93H806.992V644.562Z" fill="white"/>
<path opacity="0.33" d="M824.161 644.562H820.708V658.93H824.161V644.562Z" fill="white"/>
<path opacity="0.33" d="M841.33 644.562H837.878V658.93H841.33V644.562Z" fill="white"/>
<path opacity="0.33" d="M789.822 674.869H786.37V689.238H789.822V674.869Z" fill="white"/>
<path opacity="0.33" d="M806.992 674.869H803.54V689.238H806.992V674.869Z" fill="white"/>
<path opacity="0.33" d="M824.161 674.869H820.708V689.238H824.161V674.869Z" fill="white"/>
<path opacity="0.33" d="M841.33 674.869H837.878V689.238H841.33V674.869Z" fill="white"/>
<path opacity="0.33" d="M789.822 705.179H786.37V719.547H789.822V705.179Z" fill="white"/>
<path opacity="0.33" d="M806.992 705.179H803.54V719.547H806.992V705.179Z" fill="white"/>
<path opacity="0.33" d="M824.161 705.179H820.708V719.547H824.161V705.179Z" fill="white"/>
<path opacity="0.33" d="M841.33 705.179H837.878V719.547H841.33V705.179Z" fill="white"/>
<path opacity="0.33" d="M789.822 732.708H786.37V747.077H789.822V732.708Z" fill="white"/>
<path opacity="0.33" d="M806.992 732.708H803.54V747.077H806.992V732.708Z" fill="white"/>
<path opacity="0.33" d="M824.161 732.708H820.708V747.077H824.161V732.708Z" fill="white"/>
<path opacity="0.33" d="M789.822 763.415H786.37V777.783H789.822V763.415Z" fill="white"/>
<path opacity="0.33" d="M806.992 763.415H803.54V777.783H806.992V763.415Z" fill="white"/>
<path opacity="0.33" d="M824.161 763.415H820.708V777.783H824.161V763.415Z" fill="white"/>
<path opacity="0.33" d="M841.33 732.708H837.878V747.077H841.33V732.708Z" fill="white"/>
<path opacity="0.33" d="M1180.18 690.952H1176.66V699.199H1180.18V690.952Z" fill="white"/>
<path opacity="0.33" d="M1180.18 704.266H1176.66V712.513H1180.18V704.266Z" fill="white"/>
<path opacity="0.33" d="M1189.23 690.952H1185.7V699.199H1189.23V690.952Z" fill="white"/>
<rect y="820" width="1291.01" height="314" fill="#6258E9"/>
</svg>
